<svg xmlns="http://www.w3.org/2000/svg" shape-rendering="geometricPrecision" text-rendering="geometricPrecision" image-rendering="optimizeQuality" fill-rule="evenodd" clip-rule="evenodd" viewBox="0 0 367 511.499"><path fill="#1A1A1A" fill-rule="nonzero" d="M52.353 0h249.874C337.802 0 367 29.198 367 64.776v431.621c0 12.92-15.054 19.684-24.765 11.601L183.4 384.381 24.368 508.254C14.783 515.736.44 509.262.06 496.865l-.06-.468V52.353C0 23.543 23.543 0 52.353 0z"/><path fill="#ED1B24" d="M52.353 15.106h249.874c27.324 0 49.669 22.411 49.669 49.669v431.623L183.435 365.279 15.107 496.398V52.352c0-20.489 16.757-37.246 37.246-37.246z"/><path fill="#F1474E" fill-rule="nonzero" d="M227.096 33.879c25.127 0 64.273-3.551 83.926 9.562 23.24 15.52 23.183 51.543 23.183 76.451v38.061l-14.514-35.198c-4.744-11.506-19.236-50.632-25.924-56.29-6.463-5.469-56.253-14.76-68.441-17.717l-61.29-14.869h63.06z"/></svg>